<?xml version="1.0" encoding="UTF-8" standalone="no"?>
<!DOCTYPE svg PUBLIC "-//W3C//DTD SVG 1.1//EN" "http://www.w3.org/Graphics/SVG/1.1/DTD/svg11.dtd">
<svg width="100%" height="100%" viewBox="0 0 67 67" version="1.1" xmlns="http://www.w3.org/2000/svg" xmlns:xlink="http://www.w3.org/1999/xlink" xml:space="preserve" xmlns:serif="http://www.serif.com/" style="fill-rule:evenodd;clip-rule:evenodd;stroke-linejoin:round;stroke-miterlimit:2;">
    <g transform="matrix(1,0,0,1,-337.16,-364.722)">
        <g transform="matrix(1.66818,0,0,1,54.8827,16.1622)">
            <g transform="matrix(0.666147,0,0,1.11126,-23.3157,-57.6054)">
                <path d="M329.018,385.501L329.018,375.501C329.018,369.978 324.541,365.501 319.018,365.501L319.017,365.501C313.495,365.501 309.018,369.978 309.018,375.501L309.018,385.501L299.017,385.501C293.495,385.501 289.018,389.978 289.018,395.501L289.018,395.502C289.018,401.024 293.495,405.501 299.017,405.501L309.018,405.501L309.018,415.502C309.018,421.024 313.495,425.501 319.017,425.501L319.018,425.501C324.541,425.501 329.018,421.024 329.018,415.502L329.018,405.501L339.018,405.501C344.541,405.501 349.018,401.024 349.018,395.502L349.018,395.501C349.018,389.978 344.541,385.501 339.018,385.501L329.018,385.501Z" style="fill:rgb(17,17,17);"/>
            </g>
            <g transform="matrix(0.291358,0,0,0.486039,154.559,204.664)">
                <circle cx="118.886" cy="364.649" r="19.817" style="fill:rgb(5,5,5);"/>
            </g>
        </g>
    </g>
</svg>
