<?xml version="1.0" encoding="UTF-8" standalone="no"?>
<!DOCTYPE svg PUBLIC "-//W3C//DTD SVG 1.1//EN" "http://www.w3.org/Graphics/SVG/1.1/DTD/svg11.dtd">
<svg width="100%" height="100%" viewBox="0 0 187 200" version="1.1" xmlns="http://www.w3.org/2000/svg" xmlns:xlink="http://www.w3.org/1999/xlink" xml:space="preserve" xmlns:serif="http://www.serif.com/" style="fill-rule:evenodd;clip-rule:evenodd;stroke-linecap:round;stroke-linejoin:round;stroke-miterlimit:1.5;">
    <g transform="matrix(1,0,0,1,-195.078,-151.965)">
        <g transform="matrix(1.66818,0,0,1,54.8827,16.1622)">
            <g transform="matrix(1,0,0,1.0549,-4.66313,-18.3799)">
                <g transform="matrix(2.12175,0,0,8.93664,-180.158,-773.367)">
                    <path d="M179,104.052C179,103.471 177.746,103 176.198,103L129.802,103C129.059,103 128.346,103.111 127.821,103.308C127.295,103.505 127,103.773 127,104.052C127,107.459 127,118.094 127,120.22C127,120.461 127.22,120.694 127.623,120.881C128.939,121.493 132.006,122.918 133.495,123.609C134.027,123.856 134.828,124 135.674,124L176.198,124C177.746,124 179,123.529 179,122.948C179,119.362 179,107.638 179,104.052Z" style="fill:white;stroke:rgb(79,11,45);stroke-width:0.28px;"/>
                </g>
                <g transform="matrix(1.70549,0,0,5.88961,-116.472,-438.717)">
                    <path d="M179,104.117C179,103.821 178.743,103.537 178.286,103.327C177.828,103.118 177.208,103 176.561,103C167.827,103 138.173,103 129.439,103C128.792,103 128.172,103.118 127.714,103.327C127.257,103.537 127,103.821 127,104.117C127,107.756 127,119.244 127,122.883C127,123.179 127.257,123.463 127.714,123.673C128.172,123.882 128.792,124 129.439,124C138.173,124 167.827,124 176.561,124C177.208,124 177.828,123.882 178.286,123.673C178.743,123.463 179,123.179 179,122.883C179,119.244 179,107.756 179,104.117Z" style="fill:rgb(17,17,17);"/>
                </g>
            </g>
            <g transform="matrix(0.761529,0,0,1,43.9513,8.87648)">
                <g transform="matrix(0.599455,0,0,0.296419,54.9985,193.987)">
                    <path d="M215.706,351.525C215.706,347.966 214.581,345.076 213.196,345.076L177.45,345.076C176.064,345.076 174.94,347.966 174.94,351.525C174.94,355.084 176.064,357.973 177.45,357.973L213.196,357.973C214.581,357.973 215.706,355.084 215.706,351.525Z" style="fill:rgb(17,17,17);"/>
                </g>
                <g transform="matrix(0.599455,0,0,0.296419,54.9985,198.913)">
                    <path d="M215.706,351.525C215.706,347.966 214.581,345.076 213.196,345.076L177.45,345.076C176.064,345.076 174.94,347.966 174.94,351.525C174.94,355.084 176.064,357.973 177.45,357.973L213.196,357.973C214.581,357.973 215.706,355.084 215.706,351.525Z" style="fill:rgb(17,17,17);"/>
                </g>
                <g transform="matrix(0.599455,0,0,0.296419,54.9985,203.838)">
                    <path d="M215.706,351.525C215.706,347.966 214.581,345.076 213.196,345.076L177.45,345.076C176.064,345.076 174.94,347.966 174.94,351.525C174.94,355.084 176.064,357.973 177.45,357.973L213.196,357.973C214.581,357.973 215.706,355.084 215.706,351.525Z" style="fill:rgb(17,17,17);"/>
                </g>
                <g transform="matrix(0.599455,0,0,0.296419,54.9985,208.764)">
                    <path d="M215.706,351.525C215.706,347.966 214.581,345.076 213.196,345.076L177.45,345.076C176.064,345.076 174.94,347.966 174.94,351.525C174.94,355.084 176.064,357.973 177.45,357.973L213.196,357.973C214.581,357.973 215.706,355.084 215.706,351.525Z" style="fill:rgb(17,17,17);"/>
                </g>
            </g>
            <g transform="matrix(0.171084,0,0,0.2854,81.7749,209.173)">
                <circle cx="118.886" cy="364.649" r="19.817" style="fill:rgb(244,26,61);"/>
                <path d="M118.886,344.831C129.823,344.831 138.703,353.711 138.703,364.649C138.703,375.586 129.823,384.466 118.886,384.466C107.948,384.466 99.068,375.586 99.068,364.649C99.068,353.711 107.948,344.831 118.886,344.831ZM118.886,347.178C109.243,347.178 101.415,355.007 101.415,364.649C101.415,374.291 109.243,382.119 118.886,382.119C128.528,382.119 136.356,374.291 136.356,364.649C136.356,355.007 128.528,347.178 118.886,347.178Z" style="fill:rgb(79,11,45);"/>
            </g>
            <g transform="matrix(1,0,0,1,20.7202,-162.864)">
                <g transform="matrix(0.0816288,0,0,0.136172,99.9373,263.589)">
                    <circle cx="118.886" cy="364.649" r="19.817" style="fill:rgb(244,26,61);"/>
                    <path d="M118.886,344.831C129.823,344.831 138.703,353.711 138.703,364.649C138.703,375.586 129.823,384.466 118.886,384.466C107.948,384.466 99.068,375.586 99.068,364.649C99.068,353.711 107.948,344.831 118.886,344.831ZM118.886,347.178C109.243,347.178 101.415,355.007 101.415,364.649C101.415,374.291 109.243,382.119 118.886,382.119C128.528,382.119 136.356,374.291 136.356,364.649C136.356,355.007 128.528,347.178 118.886,347.178Z" style="fill:rgb(79,11,45);"/>
                </g>
                <g transform="matrix(0.0816288,0,0,0.136172,118.068,263.589)">
                    <circle cx="118.886" cy="364.649" r="19.817" style="fill:rgb(244,26,61);"/>
                    <path d="M118.886,344.831C129.823,344.831 138.703,353.711 138.703,364.649C138.703,375.586 129.823,384.466 118.886,384.466C107.948,384.466 99.068,375.586 99.068,364.649C99.068,353.711 107.948,344.831 118.886,344.831ZM118.886,347.178C109.243,347.178 101.415,355.007 101.415,364.649C101.415,374.291 109.243,382.119 118.886,382.119C128.528,382.119 136.356,374.291 136.356,364.649C136.356,355.007 128.528,347.178 118.886,347.178Z" style="fill:rgb(79,11,45);"/>
                </g>
            </g>
        </g>
    </g>
</svg>
